<?xml version="1.0" encoding="UTF-8"?>
<svg xmlns="http://www.w3.org/2000/svg" viewBox="0 0 850 853" role="img" aria-labelledby="title">
  <title id="title">Stacked stone logo</title>
  <g fill="#ffffff">
    <path d="M 224.0 148.0 C 224.2 150.6, 234.8 179.3, 237.0 183.0 C 239.2 186.7, 250.9 206.3, 262.0 211.0 C 273.1 215.7, 416.1 260.0, 428.0 263.0 C 439.9 266.0, 459.5 264.2, 466.0 263.0 C 472.5 261.8, 534.2 245.4, 540.0 243.0 C 545.8 240.6, 563.0 224.8, 565.0 222.0 C 567.0 219.2, 574.9 198.4, 575.0 195.0 C 575.1 191.6, 569.0 168.0, 567.0 164.0 C 565.0 160.0, 546.4 130.6, 540.0 127.0 C 533.6 123.4, 470.1 107.6, 458.0 102.0 C 445.9 96.4, 342.5 35.5, 333.0 31.0 C 323.5 26.4, 299.1 22.6, 295.0 24.0 C 290.9 25.4, 266.6 48.4, 263.0 55.0 C 259.4 61.6, 236.3 132.6, 234.0 138.0 C 231.7 143.4, 223.8 145.4, 224.0 148.0 Z"/>
    <path d="M 124.0 440.0 C 124.9 448.6, 164.6 479.2, 170.0 483.0 C 175.4 486.8, 207.9 502.3, 216.0 505.0 C 224.1 507.7, 301.1 527.5, 309.0 529.0 C 316.9 530.5, 342.1 532.9, 351.0 531.0 C 359.9 529.1, 447.9 499.7, 462.0 497.0 C 476.1 494.3, 578.8 487.4, 593.0 484.0 C 607.2 480.6, 698.3 442.3, 705.0 439.0 C 711.7 435.7, 708.7 431.0, 708.0 428.0 C 707.3 425.0, 696.0 392.3, 693.0 387.0 C 690.0 381.7, 660.4 340.6, 656.0 337.0 C 651.6 333.4, 628.2 327.5, 618.0 326.0 C 607.8 324.5, 502.2 315.0, 481.0 312.0 C 459.8 309.0, 268.5 276.9, 254.0 275.0 C 239.5 273.1, 238.8 275.5, 233.0 279.0 C 227.2 282.5, 161.4 325.6, 155.0 335.0 C 148.6 344.4, 123.1 431.4, 124.0 440.0 Z"/>
    <path d="M 825.0 745.0 C 820.5 737.0, 756.2 632.7, 742.0 622.0 C 727.8 611.3, 596.1 565.7, 582.0 561.0 C 567.9 556.3, 512.6 541.3, 500.0 542.0 C 487.4 542.7, 382.6 572.2, 366.0 573.0 C 349.4 573.8, 228.2 556.6, 216.0 556.0 C 203.8 555.4, 165.3 558.0, 157.0 563.0 C 148.7 568.0, 81.8 631.1, 74.0 642.0 C 66.2 652.9, 23.6 739.2, 24.0 749.0 C 24.4 758.8, 76.5 806.1, 81.0 810.0 C 85.5 813.9, 94.1 814.8, 101.0 815.0 C 107.9 815.2, 180.8 813.2, 199.0 814.0 C 217.2 814.8, 380.7 829.3, 413.0 828.0 C 445.3 826.7, 730.4 794.0, 753.0 791.0 C 775.6 788.0, 797.1 777.8, 801.0 776.0 C 804.9 774.2, 818.6 761.8, 820.0 760.0 C 821.4 758.2, 829.5 753.0, 825.0 745.0 Z"/>
  </g>
</svg>
